<svg xmlns="http://www.w3.org/2000/svg" width="512" height="512" viewBox="0 0 512 512" version="1.1">
	<path d="M 236.889 85.250 C 236.828 85.938, 236.859 89.425, 236.958 93 C 237.115 98.642, 236.674 100.424, 233.621 106.500 C 231.686 110.350, 227.747 116.140, 224.867 119.367 C 219.304 125.601, 208.531 135, 206.948 135 C 205.040 135, 206.066 131.445, 208.250 130.487 C 209.928 129.751, 210.581 128.508, 210.819 125.602 C 211.209 120.838, 210.144 120.036, 203.405 120.015 C 199.635 120.004, 197.851 119.492, 196.543 118.048 C 193.945 115.177, 185.159 113.747, 172.595 114.150 C 162.648 114.469, 161.016 114.790, 156.822 117.253 C 153.423 119.249, 150.790 120, 147.194 120 C 140.109 120, 138.616 122.699, 141.532 130.236 C 142.556 132.884, 138.554 133.948, 132 132.768 C 128.975 132.224, 125.306 131.153, 123.846 130.389 C 122.013 129.430, 117.525 129.002, 109.346 129.006 C 96.313 129.012, 91.226 129.988, 88.495 133.006 C 87.042 134.611, 85.403 135.003, 80.095 135.014 C 71.414 135.032, 69.103 135.743, 68.381 138.619 C 67.337 142.779, 68.763 146.003, 71.929 146.636 C 74.115 147.073, 74.901 147.871, 75.208 149.966 L 75.613 152.721 65.556 153.327 C 54.169 154.013, 52 155.347, 52 161.662 C 52 164.672, 51.546 165.292, 48.366 166.620 C 46.367 167.456, 40.696 168.636, 35.762 169.243 C 30.470 169.895, 26.036 170.994, 24.949 171.924 C 23.541 173.128, 22.621 176.884, 21.053 187.830 C 19.924 195.712, 19 203.018, 19 204.066 C 19 206.075, 26.709 210.518, 34.500 212.999 C 41.137 215.113, 47.871 218.873, 49.516 221.384 C 50.861 223.437, 51.197 233.790, 52.033 299.126 C 53.363 402.985, 53.116 395.884, 55.465 397.600 C 57.132 398.817, 68.754 399.026, 132.114 398.981 L 206.798 398.927 213.354 403.890 C 237.032 421.811, 267.557 428.094, 295.913 420.883 C 306.060 418.303, 321.982 410.469, 330.924 403.656 L 338.349 398 399.552 398 C 447.299 398, 460.981 397.725, 461.784 396.750 C 462.459 395.930, 463.061 366.077, 463.533 310 C 464.104 242.275, 464.528 223.960, 465.574 221.902 C 467.003 219.090, 475.397 214.319, 488.250 209.013 C 495.164 206.159, 496.001 205.527, 496.007 203.157 C 496.014 200.544, 493.333 179.640, 492.430 175.263 C 491.701 171.732, 488.215 170.185, 477.297 168.545 C 463.298 166.442, 462 165.752, 462 160.411 C 462 153.978, 460.448 153.003, 450.179 152.985 C 440.420 152.967, 437.840 152.103, 439.952 149.557 C 441.062 148.220, 441.011 147.670, 439.638 146.153 C 438.737 145.157, 438 143.140, 438 141.671 C 438 139.386, 438.422 139, 440.918 139 C 446.801 139, 447 138.642, 447 128.048 C 447 117.298, 446.412 116.085, 440.139 113.899 C 437.473 112.969, 436.598 113.054, 435.126 114.386 C 432.330 116.916, 430.970 116.399, 431.638 113.061 C 432.204 110.229, 432.030 110.066, 426.863 108.593 C 413.551 104.801, 396.602 103.954, 384.657 106.485 C 378.291 107.833, 361.342 113.701, 356.586 116.202 C 353.525 117.812, 353.031 118.964, 353.026 124.500 C 353.018 134.290, 353.946 137.079, 357.737 138.663 C 360.139 139.667, 360.998 140.562, 360.588 141.632 C 360.264 142.474, 360 143.577, 360 144.082 C 360 146.277, 356.343 144.583, 348.699 138.849 C 324.764 120.891, 314.032 106.919, 314.010 93.684 C 313.992 83.174, 317.364 84, 274.465 84 C 245.219 84, 236.976 84.274, 236.889 85.250 M 270 104.752 C 242.824 122.659, 230.107 131.358, 218.750 139.812 L 205 150.047 205 181.023 C 205 201.194, 205.352 212, 206.009 212 C 206.564 212, 210.760 209.145, 215.334 205.655 C 232.351 192.671, 250.900 186.667, 274 186.667 C 300.078 186.667, 318.951 193.778, 339.250 211.249 L 345 216.198 345 183.676 L 345 151.155 339.750 146.529 C 329.145 137.183, 277.424 102.942, 274.081 103.052 C 273.211 103.081, 271.375 103.846, 270 104.752 M 382.726 116.408 C 370.507 119.032, 373.947 121.034, 394.648 123.346 L 406.500 124.670 402.557 126.429 C 396.563 129.103, 385.047 131.236, 380 130.606 C 376.431 130.161, 375.889 130.272, 377.381 131.145 C 382.239 133.988, 400.513 130.035, 414 123.223 C 420.702 119.837, 421.937 116.637, 416.927 115.635 C 411.620 114.574, 388.873 115.088, 382.726 116.408 M 135 146 C 135 147.289, 135.506 147.998, 136.250 147.750 C 136.938 147.521, 137.500 146.733, 137.500 146 C 137.500 145.267, 136.938 144.479, 136.250 144.250 C 135.506 144.002, 135 144.711, 135 146 M 218.437 149.500 C 218.731 150.600, 218.979 158.816, 218.986 167.758 L 219 184.016 276.163 183.758 L 333.327 183.500 333.413 165.384 L 333.500 147.268 275.700 147.384 C 218.417 147.499, 217.905 147.518, 218.437 149.500 M 361.732 167.730 L 357.963 168.123 358.232 191.311 L 358.500 214.500 399 214.763 C 436.187 215.005, 439.602 214.887, 440.750 213.322 C 441.655 212.088, 442 205.895, 442 190.880 C 442 173.361, 441.756 169.899, 440.429 168.571 C 439.051 167.194, 434.337 167.021, 402.179 167.168 C 382.005 167.261, 363.804 167.513, 361.732 167.730 M 73.051 169.439 C 72.183 170.484, 71.945 176.791, 72.178 192.477 C 72.444 210.297, 72.762 214.255, 74 215.103 C 76.044 216.503, 189.998 215.227, 191.750 213.784 C 192.682 213.017, 193 207.064, 193 190.378 L 193 168 133.622 168 C 83.182 168, 74.065 168.217, 73.051 169.439 M 134.685 170.823 C 132.653 171.213, 132.662 170.520, 134.592 178.053 C 135.762 182.619, 136.003 186.315, 135.502 191.977 L 134.820 199.687 144.660 200.338 C 150.072 200.696, 162.037 200.992, 171.250 200.995 L 188 201 188 186 L 188 171 180.750 170.826 C 167.208 170.500, 136.377 170.499, 134.685 170.823 M 375 185.517 L 375 201.034 400.250 200.767 L 425.500 200.500 425.776 185.250 L 426.052 170 400.526 170 L 375 170 375 185.517 M 388.655 176.829 C 384.982 180.887, 387.593 187, 393 187 C 396.804 187, 399 184.608, 399 180.464 C 399 178.132, 398.395 176.746, 397.066 176.035 C 394.114 174.455, 390.494 174.797, 388.655 176.829 M 162.750 177.080 C 160.391 178.454, 160.440 184.183, 162.829 186.345 C 164.960 188.274, 170.067 188.533, 171.800 186.800 C 173.512 185.088, 173.284 179.427, 171.429 177.571 C 169.653 175.796, 165.371 175.554, 162.750 177.080 M 39.014 180.049 C 33.955 181.203, 30 186.036, 30 191.065 C 30 198.952, 35.100 204, 43.067 204 C 47.438 204, 52.510 201.371, 53.861 198.405 C 55.581 194.631, 55.224 188.880, 53.050 185.314 C 50.074 180.433, 45.256 178.626, 39.014 180.049 M 466.415 180.367 C 461.847 182.437, 459 186.590, 459 191.185 C 459 199.866, 464.454 204.542, 473.686 203.776 C 485.671 202.782, 489.789 190.920, 481.053 182.551 C 477.580 179.224, 471.079 178.254, 466.415 180.367 M 40.893 187.359 C 37.917 188.835, 37.130 193.987, 39.517 196.375 C 44.309 201.166, 52.006 194.113, 47.750 188.831 C 45.892 186.525, 43.578 186.028, 40.893 187.359 M 468 188 C 465.184 190.816, 465.469 194.437, 468.707 196.984 C 473.122 200.457, 479 197.828, 479 192.381 C 479 189.856, 474.689 186, 471.865 186 C 470.839 186, 469.100 186.900, 468 188 M 266 194.645 C 241.449 196.916, 220.298 206.552, 201.790 223.897 C 190.738 234.255, 184.053 244, 188 244 C 188.550 244, 189 243.594, 189 243.098 C 189 240.818, 208.886 221.538, 216.384 216.549 C 244.892 197.580, 281.212 194.405, 313.333 208.074 C 327.785 214.224, 346.695 229.142, 357.048 242.563 C 361.180 247.918, 363.009 249.207, 362.990 246.750 C 362.974 244.574, 353.337 232.560, 346.272 225.907 C 331.653 212.139, 316.792 203.249, 300.502 198.529 C 290.944 195.759, 274.262 193.881, 266 194.645 M 258.500 220.100 C 233.239 223.706, 210.043 237.889, 193.409 259.901 C 177.119 281.456, 169.993 306.549, 172.946 331.950 C 175.044 349.995, 180.289 364.358, 190.494 380 C 195.339 387.426, 201.543 394.749, 202.338 393.979 C 202.633 393.692, 200.512 390.019, 197.623 385.816 C 190.122 374.901, 186.533 367.764, 182.581 355.906 C 170.826 320.626, 178.809 283.145, 203.907 255.773 C 222.472 235.527, 244.622 226, 273.130 226 C 293.378 226, 308.369 230.322, 324.500 240.808 C 344.297 253.678, 358.212 273.327, 364.655 297.509 C 367.009 306.346, 367.317 309.349, 367.319 323.500 C 367.322 337.680, 367.022 340.599, 364.687 349.163 C 363.238 354.478, 360.940 361.340, 359.581 364.413 C 355.666 373.266, 357.708 370.900, 362.134 361.456 C 377.321 329.047, 374.368 289.913, 354.708 263.054 C 347.235 252.843, 341.559 246.703, 334.106 240.766 C 313.779 224.572, 284.067 216.451, 258.500 220.100 M 75.250 225.031 C 74.013 225.529, 72.948 226.738, 72.885 227.718 C 72.822 228.698, 72.851 259.200, 72.949 295.500 C 73.117 357.742, 73.511 377.844, 74.583 378.916 C 75.166 379.499, 74.659 379.496, 129.250 379.226 C 169.149 379.029, 175 378.808, 175 377.500 C 175 376.189, 169.393 376, 130.535 376 C 87.598 376, 86.035 375.934, 85.035 374.066 C 84.354 372.792, 84 350.949, 84 310.106 L 84 248.081 81.556 245.790 C 76.791 241.324, 75.735 234.878, 79.073 230.635 L 81.145 228 129.526 228 L 177.906 228 178.947 231.750 C 179.520 233.813, 179.991 236.287, 179.994 237.250 C 179.997 238.213, 180.398 239, 180.883 239 C 182.694 239, 183.776 229.709, 182.235 227.400 C 180.088 224.185, 177.040 224, 127.316 224.063 C 99.917 224.098, 76.487 224.534, 75.250 225.031 M 368 224.729 C 365.687 225.609, 365.032 227.138, 365.015 231.691 C 364.995 237.347, 366.676 238.045, 367.711 232.810 C 368.485 228.898, 368.847 228.517, 372.524 227.742 C 374.711 227.282, 388.577 227.039, 403.338 227.203 L 430.176 227.500 432.737 230.478 L 435.297 233.457 434.762 301.793 C 434.230 369.856, 434.219 370.138, 432.090 372.404 C 429.989 374.640, 429.450 374.690, 400.321 375.328 C 384.024 375.685, 370.452 376.215, 370.161 376.505 C 368.064 378.602, 374.301 379.006, 405.035 378.764 L 438.442 378.500 439.706 376 C 440.690 374.054, 440.974 357.428, 440.985 300.973 C 440.998 236.932, 440.818 228.185, 439.443 226.223 L 437.887 224 403.693 224.079 C 384.887 224.122, 368.825 224.415, 368 224.729 M 252.161 245.971 C 239.296 249.448, 229.757 255.253, 218.424 266.500 C 199.453 285.327, 191.721 304.365, 193.320 328.310 C 195.701 363.985, 217.478 392.938, 249.500 403.003 C 258.964 405.977, 276.755 406.778, 286.635 404.675 C 301.802 401.445, 315.273 394.480, 326.095 384.272 C 338.767 372.317, 345.956 358.722, 350.034 339 C 357.205 304.322, 340.351 269.021, 309 253.052 C 296.034 246.448, 289.297 244.800, 273.500 244.370 C 261.838 244.052, 258.274 244.319, 252.161 245.971 M 373.568 253.206 C 371.180 256.615, 371.444 271.071, 374.032 278.592 C 379.581 294.722, 381.739 317.559, 379.063 331.854 C 378.409 335.348, 378.088 338.421, 378.349 338.682 C 379.172 339.506, 383.748 330.765, 386.034 324 C 389.121 314.868, 389.781 298.487, 387.545 286.500 C 384.472 270.026, 379.005 253.357, 376.083 251.551 C 375.562 251.230, 374.431 251.974, 373.568 253.206 M 171.528 259.369 C 159.186 286.451, 156.781 314.598, 164.253 344.488 C 165.128 347.987, 166.062 349.584, 167.383 349.837 C 168.998 350.146, 169.163 349.791, 168.539 347.349 C 164.881 333.017, 164.525 329.915, 164.604 313 C 164.679 296.747, 164.904 294.678, 167.770 283.963 C 169.467 277.618, 172.480 268.732, 174.465 264.217 C 177.364 257.623, 177.863 255.613, 177.002 254.004 C 176.412 252.902, 175.695 252, 175.408 252 C 175.121 252, 173.375 255.316, 171.528 259.369 M 256.159 257.950 C 245.364 260.601, 234.957 266.296, 226.536 274.160 C 217.673 282.437, 212.026 290.920, 208.336 301.500 C 205.843 308.647, 205.544 310.886, 205.523 322.500 C 205.504 333.374, 205.883 336.727, 207.842 343 C 211.716 355.406, 216.628 363.648, 225.485 372.603 C 238.529 385.792, 251.906 391.177, 271.500 391.129 C 284.590 391.097, 291.286 389.547, 303 383.837 C 314.606 378.181, 326.380 366.620, 331.487 355.865 C 339.054 339.931, 341.218 326.298, 338.587 311.142 C 335.845 295.347, 330.394 285.329, 318.370 273.989 C 301.977 258.529, 278.474 252.470, 256.159 257.950 M 260.272 274.437 C 245.985 277.899, 233.272 287.567, 227.524 299.342 C 219.099 316.602, 218.990 330.430, 227.153 346.721 C 230.844 354.088, 240.276 363.586, 247.572 367.283 C 275.973 381.675, 308.986 369.230, 320.116 339.936 C 327.072 321.629, 322.993 301.734, 309.569 288.500 C 296.719 275.832, 277.336 270.302, 260.272 274.437 M 265.387 275.999 C 249.451 278.334, 235.916 287.334, 229.610 299.787 C 219.345 320.058, 223.367 343.590, 239.528 357.816 C 258.244 374.290, 286.627 373.728, 305.785 356.503 C 316.259 347.086, 322.799 327.775, 320.217 313.889 C 317.400 298.741, 309.064 287.970, 294.898 281.169 C 283.354 275.627, 276.324 274.396, 265.387 275.999 M 267.326 290.084 C 258.770 291.695, 255.192 294.716, 252.394 302.691 C 250.208 308.922, 251.096 312.654, 255.318 314.969 C 258.364 316.640, 258.640 316.431, 265.959 306.885 L 268.419 303.678 269.260 307.089 C 270.513 312.169, 273.268 314, 279.656 314 C 284.093 314, 285.542 313.549, 287.545 311.545 C 288.895 310.195, 289.989 308.283, 289.976 307.295 C 289.919 303.149, 287.732 296.345, 285.792 294.279 C 282.377 290.643, 274.211 288.788, 267.326 290.084 M 241 293 C 238.302 295.698, 238.444 300.129, 241.314 302.826 C 244.144 305.484, 246.079 305.566, 249.056 303.156 C 253.621 299.459, 250.721 291, 244.889 291 C 243.850 291, 242.100 291.900, 241 293 M 294.223 292.557 C 290.095 295.448, 292.203 302.874, 297.593 304.431 C 300.379 305.235, 305 301.574, 305 298.562 C 305 295.392, 301.312 291, 298.650 291 C 297.437 291, 295.445 291.701, 294.223 292.557 M 241.592 314.296 C 238.557 331.772, 252.572 347.612, 272.107 348.784 C 278.822 349.187, 280.433 348.918, 285.841 346.491 C 297.328 341.336, 304.196 330.893, 303.877 319.068 C 303.759 314.712, 303.711 314.794, 302.845 320.846 C 301.182 332.464, 295.603 340.089, 285 345.237 C 275.209 349.991, 261.180 347.365, 251.645 338.994 C 245.771 333.836, 243.682 328.879, 243.009 318.500 C 242.443 309.775, 242.399 309.647, 241.592 314.296 M 302.158 312 C 302.158 313.375, 302.385 313.938, 302.662 313.250 C 302.940 312.563, 302.940 311.438, 302.662 310.750 C 302.385 310.063, 302.158 310.625, 302.158 312" stroke="none" fill="black" fill-rule="evenodd"/>
</svg>